<svg width="288" height="229" viewBox="0 0 288 229" fill="none" xmlns="http://www.w3.org/2000/svg">
<g clip-path="url(#clip0_1_174)">
<rect width="288" height="229" fill="white"/>
<path d="M0 0H58V29H29L0 0Z" fill="#FEBE10"/>
<path d="M145 87H88V58H116L145 87Z" fill="#FFE6B4"/>
<path d="M29 29H87L116 58H58L29 29Z" fill="#FFD67B"/>
<path d="M58.0001 0L87 29H58.0001V0Z" fill="#FFD67B"/>
<path d="M58 58L88 87V58H58Z" fill="#FFD67B"/>
<path d="M135 117H175L155 137L135 117Z" fill="#94C9D2"/>
<path d="M88 87H145L175 117L118 117L88 87Z" fill="#94C9D2"/>
<path d="M135 117L155 137L134 158L93 117H135Z" fill="#46ACB9"/>
<path d="M93 117L134 158H52L93 117Z" fill="#D9D9D9"/>
<path d="M93 117L134 158H52L93 117Z" fill="#00A0AF"/>
<path d="M93 199L134 158H52L93 199Z" fill="#D9D9D9"/>
<path d="M93 199L134 158H52L93 199Z" fill="#0095A4"/>
<path d="M52 158L11 199H93L52 158Z" fill="#D9D9D9"/>
<path d="M52 158L11 199H93L52 158Z" fill="#008998"/>
<path d="M288 229L229 170H288V229Z" fill="#FEBE10"/>
<path d="M200 141L259 200H200V141Z" fill="#FFD67B"/>
</g>
<defs>
<clipPath id="clip0_1_174">
<rect width="288" height="229" fill="white"/>
</clipPath>
</defs>
</svg>
